<?xml version="1.0" encoding="UTF-8"?>
<svg viewBox="0 0 128 128" xmlns="http://www.w3.org/2000/svg">
 <defs>
  <linearGradient id="d" x1="-2.4015" x2="130.15" y1="920.22" y2="1052.8" gradientUnits="userSpaceOnUse">
   <stop stop-color="#4d4d4d" offset="0"/>
   <stop stop-color="#808080" offset=".2398"/>
   <stop stop-color="#ccc" offset=".49761"/>
   <stop stop-color="#808080" offset=".75054"/>
   <stop stop-color="#4d4d4d" offset="1"/>
  </linearGradient>
  <linearGradient id="c" x1="12" x2="115.75" y1="934.61" y2="1038.4" gradientUnits="userSpaceOnUse">
   <stop stop-color="#ccc" offset="0"/>
   <stop stop-color="#e6e6e6" offset=".2398"/>
   <stop stop-color="#f9f9f9" offset=".49761"/>
   <stop stop-color="#ccc" offset=".75054"/>
   <stop stop-color="#ccc" offset="1"/>
  </linearGradient>
  <linearGradient id="b" x1="10.75" x2="121.5" y1="931.49" y2="1048.7" gradientUnits="userSpaceOnUse">
   <stop stop-color="#ccc" offset="0"/>
   <stop stop-color="#e6e6e6" offset=".2398"/>
   <stop stop-color="#ccc" offset=".49761"/>
   <stop stop-color="#ccc" offset=".75054"/>
   <stop stop-color="#ccc" offset="1"/>
  </linearGradient>
  <linearGradient id="a" x1="23.5" x2="102.5" y1="939.5" y2="1041.2" gradientUnits="userSpaceOnUse">
   <stop stop-color="#4d4d4d" offset="0"/>
   <stop stop-color="#808080" offset=".2398"/>
   <stop stop-color="#b3b3b3" offset=".49761"/>
   <stop stop-color="#808080" offset=".75054"/>
   <stop stop-color="#4d4d4d" offset="1"/>
  </linearGradient>
 </defs>
 <g transform="translate(0 -924.36)">
  <path d="m71.25 986.49c0 4.0731-3.3019 7.375-7.375 7.375s-7.375-3.3019-7.375-7.375 3.3019-7.375 7.375-7.375 7.375 3.3019 7.375 7.375zm12.5-1e-5c0 10.977-8.8983 19.875-19.875 19.875s-19.875-8.8984-19.875-19.875 8.8983-19.875 19.875-19.875 19.875 8.8983 19.875 19.875z" fill="url(#b)" fill-rule="evenodd" opacity=".45673"/>
  <path d="m83.75 986.49c0 10.977-8.8983 19.875-19.875 19.875s-19.875-8.8984-19.875-19.875 8.8983-19.875 19.875-19.875 19.875 8.8983 19.875 19.875zm32 1e-5c0 28.65-23.225 51.875-51.875 51.875s-51.875-23.225-51.875-51.875 23.225-51.875 51.875-51.875 51.875 23.225 51.875 51.875z" fill="url(#c)" fill-rule="evenodd"/>
  <path d="m63.875 934.12c-28.92 0-52.375 23.455-52.375 52.375s23.455 52.375 52.375 52.375 52.375-23.455 52.375-52.375-23.455-52.375-52.375-52.375zm0 1c28.38 0 51.375 22.995 51.375 51.375s-22.995 51.375-51.375 51.375-51.375-22.995-51.375-51.375 22.995-51.375 51.375-51.375z" fill="url(#d)" fill-rule="evenodd"/>
  <path d="m63.875 966.12c-11.247 0-20.375 9.1281-20.375 20.375s9.1281 20.375 20.375 20.375 20.375-9.1281 20.375-20.375-9.1281-20.375-20.375-20.375zm0 1c10.706 0 19.375 8.6686 19.375 19.375s-8.6686 19.375-19.375 19.375-19.375-8.6686-19.375-19.375 8.6686-19.375 19.375-19.375zm0 11.5c-4.3433 0-7.875 3.5317-7.875 7.875s3.5317 7.875 7.875 7.875 7.875-3.5317 7.875-7.875-3.5317-7.875-7.875-7.875zm0 1c3.8029 0 6.875 3.0721 6.875 6.875s-3.0721 6.875-6.875 6.875-6.875-3.0721-6.875-6.875 3.0721-6.875 6.875-6.875z" fill="url(#a)"/>
 </g>
</svg>
